PathFileType	4	(X/Y/Z)	/Users/itak/Documents/Research/Walk-IL/dataset/trc/00412_00012.trc
DataRate	CameraRate	NumFrames	NumMarkers	Units	OrigDataRate	OrigDataStartFrame	OrigNumFrames
100.000000	100.000000	4	54	mm	100.000000	109	438
Frame#	Time	LPSI			L3			STRN			T10			C7			CLAV			RBAK			LBAK			LSHO			LUPA			LAEL			LAOL			LWTS			LWPS			LFRA			LIFD			LHPS			LHTS			RSHO			RUPA			RAEL			RAOL			RWTS			RWPS			RFRA			RIFD			RHTS			RHPS			RBHD			LFHD			RFHD			LBHD			LHIP			RHIP			RASI			LASI			LKNE			LTHI			LANK			LTIP			LTOE			LMT1			LMT5			LHEE			RKNE			RTHI			RANK			RTIP			RTOE			RMT1			RMT5			RHEE			RPSI			*53			
		X1	Y1	Z1	X2	Y2	Z2	X3	Y3	Z3	X4	Y4	Z4	X5	Y5	Z5	X6	Y6	Z6	X7	Y7	Z7	X8	Y8	Z8	X9	Y9	Z9	X10	Y10	Z10	X11	Y11	Z11	X12	Y12	Z12	X13	Y13	Z13	X14	Y14	Z14	X15	Y15	Z15	X16	Y16	Z16	X17	Y17	Z17	X18	Y18	Z18	X19	Y19	Z19	X20	Y20	Z20	X21	Y21	Z21	X22	Y22	Z22	X23	Y23	Z23	X24	Y24	Z24	X25	Y25	Z25	X26	Y26	Z26	X27	Y27	Z27	X28	Y28	Z28	X29	Y29	Z29	X30	Y30	Z30	X31	Y31	Z31	X32	Y32	Z32	X33	Y33	Z33	X34	Y34	Z34	X35	Y35	Z35	X36	Y36	Z36	X37	Y37	Z37	X38	Y38	Z38	X39	Y39	Z39	X40	Y40	Z40	X41	Y41	Z41	X42	Y42	Z42	X43	Y43	Z43	X44	Y44	Z44	X45	Y45	Z45	X46	Y46	Z46	X47	Y47	Z47	X48	Y48	Z48	X49	Y49	Z49	X50	Y50	Z50	X51	Y51	Z51	X52	Y52	Z52	X53	Y53	Z53	X54	Y54	Z54	

110	1.09	-876.6051025390625	981.812744140625	484.4375610351562	-880.9702758789062	1057.091552734375	551.7420043945312	-648.2200927734375	1211.150268554688	579.2835693359375	-889.1033935546875	1158.959594726562	545.7442626953125	-854.8720092773438	1408.978393554688	538.7880249023438	-700.3470458984375	1330.1728515625	569.9573974609375	-905.4158935546875	1263.126342773438	602.2098999023438	-849.6444091796875	1370.222412109375	433.1316223144531	-754.01708984375	1385.453247070312	398.4822387695312	-760.7647094726562	1269.301635742188	324.1676940917969	-733.2639770507812	1070.441040039062	308.3827819824219	-804.2978515625	1050.961669921875	350.4469909667969	-656.8377685546875	858.6655883789062	386.9839172363281	-683.9170532226562	842.3955688476562	310.9996948242188	-712.9793090820312	965.8509521484375	307.4834899902344	-656.0301513671875	680.3079833984375	390.9641418457031	-670.9407348632812	757.6498413085938	326.2892150878906	-631.6932373046875	762.1777954101562	376.2829284667969	-818.0061645507812	1388.111938476562	706.465087890625	-834.979248046875	1322.174194335938	764.7938842773438	-809.7152099609375	1059.911987304688	808.7561645507812	-834.9176635742188	1049.524169921875	719.0756225585938	-675.6910400390625	848.9411010742188	772.8700561523438	-710.7952880859375	837.0326538085938	836.4113159179688	-778.8773803710938	996.4384765625	824.1295166015625	-677.7151489257812	677.09912109375	771.7982788085938	-654.6027221679688	743.2017822265625	790.7484130859375	-704.3436889648438	747.7952880859375	836.1116943359375	-824.7451171875	1606.376831054688	617.2881469726562	-657.656005859375	1593.203491210938	509.9950866699219	-691.4808349609375	1608.377563476562	627.02587890625	-797.765869140625	1584.05224609375	458.6639404296875	-776.5933227539062	967.4662475585938	380.2506103515625	-812.1112060546875	963.780517578125	738.0595092773438	-675.3614501953125	968.7092895507812	691.5850219726562	-668.6959228515625	964.6954956054688	428.0957336425781	-736.452880859375	473.4348754882812	399.4703674316406	-744.8563232421875	616.0952758789062	386.4776916503906	-855.252685546875	37.60305786132812	420.8846130371094	-794.4178466796875	242.77783203125	399.3410949707031	-656.2791137695312	57.23273468017578	515.2713623046875	-739.2791748046875	48.71036529541016	533.9189453125	-727.920166015625	41.70070648193359	429.2019653320312	-902.9520874023438	37.03965759277344	471.3142700195312	-744.1141357421875	469.9906311035156	701.0159912109375	-720.4522094726562	731.4607543945312	733.9686889648438	-834.1995849609375	58.22812652587891	670.0977172851562	-742.7264404296875	342.3268127441406	685.1474609375	-651.2850341796875	43.88171005249023	622.72802734375	-722.7696533203125	44.13058090209961	585.8729858398438	-751.975341796875	47.99917602539062	682.7940673828125	-903.3309936523438	44.36354064941406	612.7236938476562	-885.41748046875	987.973388671875	616.6044311523438	nan	nan	nan	
111	1.1	-875.255615234375	981.9618530273438	485.2685546875	-879.6314697265625	1056.941528320312	552.4879150390625	-647.0247802734375	1210.945434570312	580.7803955078125	-887.9481201171875	1158.858276367188	546.5408935546875	-853.5189819335938	1408.874145507812	539.8198852539062	-699.1445922851562	1330.007690429688	571.4026489257812	-904.2461547851562	1262.9921875	603.069580078125	-848.0630493164062	1370.1904296875	434.2184143066406	-752.3483276367188	1385.4052734375	399.8106384277344	-759.1290893554688	1269.291015625	325.4041748046875	-732.0433959960938	1070.40771484375	309.4534301757812	-803.0053100585938	1051.016845703125	351.7180480957031	-655.6604614257812	858.4920654296875	387.7397155761719	-683.062255859375	842.2553100585938	311.9172058105469	-711.9212036132812	965.7982177734375	308.4785461425781	-655.086669921875	680.1785278320312	391.7948608398438	-670.2217407226562	757.5204467773438	327.1739807128906	-630.6614990234375	762.0283203125	376.9798583984375	-817.068603515625	1387.911499023438	707.606689453125	-834.2805786132812	1321.941650390625	765.8750610351562	-809.22998046875	1059.654174804688	809.6312255859375	-834.0501708984375	1049.35400390625	719.8838500976562	-675.1461181640625	848.6455688476562	773.8822631835938	-710.5615234375	836.6691284179688	837.3544311523438	-778.4459838867188	996.12744140625	825.0301513671875	-677.330810546875	676.7941284179688	772.6234741210938	-654.1841430664062	742.8751831054688	791.7149047851562	-703.994384765625	747.4442138671875	836.93212890625	-823.5745849609375	1606.311889648438	618.3621826171875	-656.5769653320312	1593.068725585938	510.8639526367188	-690.2717895507812	1608.426513671875	627.8922729492188	-796.7537231445312	1583.728149414062	459.7122802734375	-775.1698608398438	967.6569213867188	381.0715026855469	-811.2548217773438	963.5267944335938	738.9486694335938	-674.0896606445312	968.4387817382812	692.8291015625	-667.1964111328125	964.6163940429688	429.3180847167969	-735.8738403320312	473.4651794433594	399.7493286132812	-743.9307861328125	616.1903076171875	387.0210266113281	-855.3335571289062	37.33754348754883	420.583251953125	-794.2918701171875	242.9242858886719	399.2008972167969	-656.6237182617188	58.17544937133789	514.95361328125	-739.5155639648438	49.32638168334961	533.7587280273438	-728.0388793945312	41.70840835571289	429.0205688476562	-903.1897583007812	37.00798416137695	471.0323791503906	-742.9616088867188	469.6703186035156	701.3350219726562	-719.6234130859375	731.0601196289062	734.7906494140625	-834.2068481445312	58.2254524230957	670.1250610351562	-741.851318359375	341.9772338867188	685.3526611328125	-651.34912109375	44.0409049987793	622.7454833984375	-722.8242797851562	44.16056823730469	585.9083251953125	-751.9682006835938	48.01031112670898	682.8114013671875	-903.4026489257812	44.36812973022461	612.68359375	-884.3003540039062	987.8836059570312	617.374755859375	nan	nan	nan	
112	1.11	-873.8334350585938	982.1370849609375	486.1625366210938	-878.192626953125	1056.788818359375	553.3121337890625	-645.7376098632812	1210.74560546875	582.3584594726562	-886.663818359375	1158.73095703125	547.3914794921875	-852.09228515625	1408.765747070312	540.9125366210938	-697.866455078125	1329.8388671875	572.9204711914062	-902.977783203125	1262.84033203125	603.9644165039062	-846.4031372070312	1370.16650390625	435.3704528808594	-750.5861206054688	1385.354858398438	401.2079772949219	-757.3729858398438	1269.275634765625	326.7106018066406	-730.6814575195312	1070.382568359375	310.60107421875	-801.599365234375	1051.067260742188	353.0250854492188	-654.380859375	858.3182983398438	388.5905151367188	-682.0548095703125	842.1255493164062	312.895751953125	-710.6935424804688	965.75537109375	309.5491027832031	-654.0578002929688	680.0398559570312	392.6925354003906	-669.3269653320312	757.386474609375	328.1319885253906	-629.5609741210938	761.8619384765625	377.790283203125	-816.0763549804688	1387.689453125	708.80517578125	-833.53857421875	1321.703247070312	767.006103515625	-808.743896484375	1059.373046875	810.5464477539062	-833.085693359375	1049.158081054688	720.713134765625	-674.6112060546875	848.323974609375	774.9722900390625	-710.327392578125	836.2880249023438	838.3588256835938	-778.009521484375	995.7974243164062	825.9868774414062	-676.8811645507812	676.4804077148438	773.5200805664062	-653.6837158203125	742.5383911132812	792.754638671875	-703.6583251953125	747.0667724609375	837.8109741210938	-822.3301391601562	1606.247192382812	619.5064086914062	-655.4288330078125	1592.924560546875	511.7816467285156	-688.9962768554688	1608.468017578125	628.81201171875	-795.6704711914062	1583.407592773438	460.8238525390625	-773.65576171875	967.8462524414062	381.9736022949219	-810.2884521484375	963.2013549804688	739.8710327148438	-672.7014770507812	968.1677856445312	694.1398315429688	-665.6353149414062	964.519287109375	430.596435546875	-735.2342529296875	473.4916076660156	400.0823669433594	-742.935302734375	616.28369140625	387.6499938964844	-855.36474609375	37.03775024414062	420.2812194824219	-794.1514892578125	243.0877227783203	399.0674438476562	-656.9805297851562	59.06471633911133	514.64697265625	-739.6754150390625	49.9537239074707	533.608154296875	-728.1129150390625	41.68193435668945	428.8558349609375	-903.4201049804688	36.97551345825195	470.7122497558594	-741.8013916015625	469.3450927734375	701.6781616210938	-718.7747802734375	730.638427734375	735.6624145507812	-834.213623046875	58.21421051025391	670.1571044921875	-740.9942626953125	341.6129760742188	685.5807495117188	-651.4126586914062	44.19317626953125	622.7505493164062	-722.8807983398438	44.18658065795898	585.9380493164062	-751.9716796875	48.02057647705078	682.8225708007812	-903.4773559570312	44.36856460571289	612.6382446289062	-883.0711669921875	987.8270874023438	618.2108764648438	nan	nan	nan	
113	1.12	-872.3389892578125	982.312744140625	487.114013671875	-876.6765747070312	1056.646240234375	554.2308959960938	-644.365478515625	1210.546142578125	584.0126953125	-885.258544921875	1158.591186523438	548.32080078125	-850.5859985351562	1408.651000976562	542.0762329101562	-696.4954223632812	1329.665893554688	574.50634765625	-901.6150512695312	1262.683959960938	604.9135131835938	-844.6580200195312	1370.150024414062	436.587646484375	-748.7313232421875	1385.300903320312	402.6746520996094	-755.4896850585938	1269.256469726562	328.0912170410156	-729.162841796875	1070.36767578125	311.8262023925781	-800.0693359375	1051.11376953125	354.3516845703125	-653.000244140625	858.1488647460938	389.5429077148438	-680.881591796875	842.0104370117188	313.9336853027344	-709.2839965820312	965.722412109375	310.6943359375	-652.9420166015625	679.8929443359375	393.6529541015625	-668.2478637695312	757.2520141601562	329.1578979492188	-628.3828735351562	761.6759033203125	378.71044921875	-815.0243530273438	1387.449340820312	710.0672607421875	-832.7317504882812	1321.460205078125	768.1896362304688	-808.2434692382812	1059.065185546875	811.5098876953125	-832.02001953125	1048.92138671875	721.5641479492188	-674.1103515625	847.9676513671875	776.1419067382812	-710.07470703125	835.8883056640625	839.4273071289062	-777.5538940429688	995.4474487304688	827.0057983398438	-676.380615234375	676.1554565429688	774.4940795898438	-653.1455078125	742.1796875	793.869873046875	-703.327880859375	746.6686401367188	838.7557983398438	-821.0057983398438	1606.182006835938	620.72509765625	-654.2153930664062	1592.773071289062	512.7440795898438	-687.6521606445312	1608.50732421875	629.7828979492188	-794.5203247070312	1583.082153320312	462.0023803710938	-772.079833984375	968.0275268554688	382.9495239257812	-809.2155151367188	962.8211669921875	740.8397827148438	-671.2427978515625	967.8851928710938	695.5052490234375	-664.0330200195312	964.4076538085938	431.9220886230469	-734.52294921875	473.510009765625	400.4797668457031	-741.8601684570312	616.3682861328125	388.3729248046875	-855.342529296875	36.70423889160156	419.9781494140625	-793.9957275390625	243.2689971923828	398.9483032226562	-657.3396606445312	59.88070297241211	514.35791015625	-739.7708740234375	50.56980895996094	533.4572143554688	-728.135009765625	41.61120986938477	428.7055358886719	-903.6298828125	36.94922637939453	470.3618774414062	-740.6243286132812	469.0125427246094	702.0364990234375	-717.896728515625	730.1932373046875	736.5828857421875	-834.2232666015625	58.19245147705078	670.1937255859375	-740.1433715820312	341.2361145019531	685.8168334960938	-651.4735107421875	44.32564926147461	622.7313232421875	-722.9383544921875	44.20456314086914	585.9515380859375	-751.9815673828125	48.03243637084961	682.82080078125	-903.5375366210938	44.35132598876953	612.60302734375	-881.7280883789062	987.7830810546875	619.113525390625	nan	nan	nan	
